<svg viewBox="0 0 37 35" version="1.1" xmlns="http://www.w3.org/2000/svg">
    <!-- Generator: Sketch 51.2 (57519) - http://www.bohemiancoding.com/sketch -->
    <desc>Created with Sketch.</desc>
    <defs></defs>
    <g id="TailTrax-Overall-Main-Flow--Start-Here--iOS" stroke="none" stroke-width="1" fill="none" fill-rule="evenodd">
        <g id="Vet-User-SetUp_DogOwner" transform="translate(-294.000000, -549.000000)" fill="#FFFFFF">
            <g id="Add-Dog-Button" transform="translate(281.000000, 537.000000)">
                <g id="Group-3">
                    <g id="Group-4">
                        <text id="+" font-family="Avenir-Book, Avenir" font-size="26" font-weight="normal" line-spacing="40">
                            <tspan x="34" y="46">+</tspan>
                        </text>
                        <path d="M13.8029263,36.7031368 C14.2149368,35.9210526 14.5233053,35.1229579 14.6960105,34.3297895 C15.7050526,34.896 16.8682947,35.2191789 18.1081158,35.2191789 C21.9556947,35.2191789 25.0741158,32.1007579 25.0741158,28.2531789 L25.0741158,21.7561263 C25.0741158,21.4970811 24.8681137,21.2873684 24.6053579,21.2873684 L23.6851158,21.2873684 C23.4260705,21.2873684 23.2163579,21.49584 23.2163579,21.7561263 L23.2163579,28.2531789 C23.2163579,31.0755474 20.9305789,33.3626526 18.1081474,33.3626526 C16.9584842,33.3626526 15.8963895,32.9827263 15.0427789,32.3412632 C13.8018211,31.4099368 13,29.9272105 13,28.2568421 L13,19.4295789 C13,15.3157895 16.9795789,12 21.3586316,12 L27.8645263,12 C29.1733158,12 30.7855789,12.7845474 31.5946316,13.8145579 L34.4108421,17.3968737 C34.8684842,17.9803579 35.9429263,18.5021368 36.6867368,18.5021368 L41.7898947,18.5021368 C43.3293684,18.5021368 44.5789474,19.7504842 44.5789474,21.2874947 L44.5789474,24.5391789 C44.5789474,25.9540737 43.5637474,27.4133684 42.2339579,27.8871789 C42.1241705,27.93282 41.9465389,28.0018989 41.7109474,28.0870137 C41.2865895,28.2399758 40.8104421,28.3917 40.2911263,28.5335716 C38.8047053,28.9394242 37.2689263,29.1824242 35.7554421,29.1824242 L27.3955474,29.1824242 C27.1389684,29.1824242 26.9317158,29.3884263 26.9317158,29.6511821 L26.9317158,30.5714242 C26.9317158,30.8304695 27.1352516,31.0401821 27.3955474,31.0401821 L34.6871263,31.0401821 C34.6612218,31.0759547 34.6390189,31.1043253 34.6217484,31.1215958 C34.0012853,31.7605642 33.3783274,32.4957853 32.7985695,33.3173116 C31.3429695,35.3797958 30.4104116,38.3329958 30.2192011,40.8087853 C30.19453,41.1221084 30.2192011,40.8087853 30.2192011,40.8087853 C30.19453,41.3108274 29.7751379,41.6340379 29.2706011,41.5242379 L13.9115484,38.2033958 C13.4082432,38.0948432 13.2244537,37.6556905 13.5007695,37.2239432 C13.5007695,37.2239432 13.5686137,37.1499284 13.8029895,36.7033958 L13.8029263,36.7031368 Z M29.7180842,19.4297684 C30.4878211,19.4297684 31.1107789,18.8068105 31.1107789,18.0370737 C31.1107789,17.2673368 30.4878211,16.6443789 29.7180842,16.6443789 C28.9483474,16.6443789 28.3253895,17.2673368 28.3253895,18.0370737 C28.3253895,18.8068105 28.9483474,19.4297684 29.7180842,19.4297684 Z" id="Shape" fill-rule="nonzero"></path>
                    </g>
                </g>
            </g>
        </g>
    </g>
</svg>