<?xml version="1.0" encoding="UTF-8" standalone="no"?><!DOCTYPE svg PUBLIC "-//W3C//DTD SVG 1.1//EN" "http://www.w3.org/Graphics/SVG/1.1/DTD/svg11.dtd">
<svg width="100%" height="100%" viewBox="0 0 37 30" version="1.1" xmlns="http://www.w3.org/2000/svg"  xml:space="preserve" xmlns:serif="http://www.serif.com/" style="fill-rule:evenodd;clip-rule:evenodd;stroke-linejoin:round;stroke-miterlimit:1.41421;"><g id="_-" serif:id="+"><text x="10.831px" y="30.955px" style="font-family:'Avenir-Book', 'Avenir';font-size:26px;fill:#fff;">+</text></g><path id="Shape" d="M0.447,13.751c0.229,-0.435 0.401,-0.879 0.497,-1.321c0.562,0.315 1.209,0.495 1.9,0.495c2.141,0 3.877,-1.736 3.877,-3.877l0,-3.617c0,-0.144 -0.114,-0.261 -0.261,-0.261l-0.512,0c-0.144,0 -0.261,0.116 -0.261,0.261l0,3.617c0,1.571 -1.272,2.844 -2.843,2.844c-0.64,0 -1.232,-0.212 -1.707,-0.569c-0.691,-0.518 -1.137,-1.344 -1.137,-2.273l0,-4.914c0,-2.29 2.215,-4.136 4.653,-4.136l3.622,0c0.728,0 1.626,0.437 2.076,1.01l1.568,1.994c0.254,0.325 0.853,0.616 1.267,0.616l2.84,0c0.857,0 1.553,0.694 1.553,1.55l0,1.81c0,0.788 -0.565,1.6 -1.305,1.864c-0.062,0.025 -0.16,0.064 -0.292,0.111c-0.236,0.085 -0.501,0.17 -0.79,0.249c-0.827,0.226 -1.682,0.361 -2.525,0.361l-4.653,0c-0.143,0 -0.259,0.115 -0.259,0.261l0,0.512c0,0.144 0.114,0.261 0.259,0.261l4.059,0c-0.015,0.02 -0.027,0.036 -0.037,0.045c-0.345,0.356 -0.692,0.765 -1.015,1.223c-0.81,1.148 -1.329,2.792 -1.436,4.17c-0.013,0.174 0,0 0,0c-0.013,0.279 -0.247,0.459 -0.528,0.398l-8.55,-1.848c-0.28,-0.061 -0.382,-0.305 -0.228,-0.546c0,0 0.038,-0.041 0.168,-0.289l0,-0.001Zm8.859,-9.615c0.429,0 0.776,-0.347 0.776,-0.775c0,-0.429 -0.347,-0.776 -0.776,-0.776c-0.428,0 -0.775,0.347 -0.775,0.776c0,0.428 0.347,0.775 0.775,0.775Z" style="fill:#fff;fill-rule:nonzero;"/><path id="Shape1" serif:id="Shape" d="M36.553,13.759c-0.23,-0.434 -0.402,-0.877 -0.498,-1.317c-0.563,0.314 -1.211,0.493 -1.902,0.493c-2.144,0 -3.882,-1.731 -3.882,-3.866l0,-3.607c0,-0.143 0.115,-0.26 0.261,-0.26l0.513,0c0.144,0 0.261,0.116 0.261,0.26l0,3.607c0,1.566 1.274,2.836 2.847,2.836c0.641,0 1.233,-0.211 1.708,-0.567c0.692,-0.517 1.139,-1.34 1.139,-2.267l0,-4.9c0,-2.283 -2.218,-4.124 -4.659,-4.124l-3.625,0c-0.73,0 -1.628,0.436 -2.079,1.007l-1.57,1.989c-0.255,0.324 -0.854,0.613 -1.268,0.613l-2.845,0c-0.858,0 -1.554,0.693 -1.554,1.546l0,1.805c0,0.786 0.566,1.596 1.307,1.859c0.061,0.025 0.16,0.063 0.291,0.111c0.237,0.084 0.502,0.169 0.792,0.247c0.828,0.226 1.684,0.361 2.528,0.361l4.659,0c0.143,0 0.258,0.114 0.258,0.26l0,0.511c0,0.143 -0.113,0.26 -0.258,0.26l-4.064,0c0.014,0.02 0.027,0.035 0.036,0.045c0.346,0.355 0.693,0.763 1.017,1.219c0.811,1.145 1.331,2.784 1.437,4.158c0.014,0.174 0,0 0,0c0.014,0.279 0.248,0.458 0.529,0.397l8.56,-1.843c0.28,-0.06 0.383,-0.304 0.229,-0.544c0,0 -0.038,-0.041 -0.169,-0.289l0.001,0Zm-8.871,-9.588c-0.429,0 -0.776,-0.346 -0.776,-0.773c0,-0.427 0.347,-0.773 0.776,-0.773c0.429,0 0.777,0.346 0.777,0.773c0,0.427 -0.348,0.773 -0.777,0.773Z" style="fill:#fff;fill-rule:nonzero;"/></svg>